<?xml version="1.0"?><svg width="640" height="480" xmlns="http://www.w3.org/2000/svg" xmlns:xlink="http://www.w3.org/1999/xlink">
 <title>weinerlicious name tag</title>
 <defs>
  <linearGradient id="linearGradient15294">
   <stop stop-color="#ffffff" stop-opacity="0" offset="0" id="stop15295"/>
   <stop stop-color="#7d4129" stop-opacity="0.737255" offset="1" id="stop15296"/>
  </linearGradient>
  <linearGradient id="linearGradient14656">
   <stop stop-color="#c96b00" offset="0" id="stop14657"/>
   <stop stop-color="#400000" offset="1" id="stop14658"/>
  </linearGradient>
  <linearGradient y2="0.367188" y1="0.195313" xlink:href="#linearGradient14656" x2="0.855932" x1="0.686441" spreadMethod="reflect" id="linearGradient14655"/>
  <linearGradient y2="0.648438" y1="0.5625" xlink:href="#linearGradient15294" x2="0.47541" x1="0.393443" id="linearGradient15293"/>
  <linearGradient y2="0.292969" x2="0.398438" y1="0.496094" x1="0.589844" id="svg_18">
   <stop stop-color="#ffaa00" offset="0"/>
   <stop stop-color="#ffff00" offset="1"/>
  </linearGradient>
 </defs>
 <g>
  <path transform="rotate(47.5628, 305.707, 227.858)" fill="url(#linearGradient14655)" fill-rule="evenodd" stroke-width="1.0000000pt" id="path14022" d="m424.659546,65.024094l-12.275269,1.754021l-13.444366,6.43145l-17.536102,13.447548l-32.73407,36.249939l-50.854706,48.528099l-66.052704,74.838593l-59.622772,74.838531l-14.613419,29.818542l2.33815,15.786255l7.598969,9.939453l6.429916,5.846802l8.768066,5.846741l22.796936,2.338684l19.289719,-13.44751l30.980469,-43.850708l1.169067,-12.278259l14.0289,-27.479736l28.057739,-33.326538l94.110474,-98.225647l30.395935,-30.403168l14.02887,-11.693535l6.429932,-4.092728l9.937103,-18.124954l-0.584534,-9.354828l-9.937103,-14.616905l-9.3526,-7.600792l-9.3526,-1.16935z"/>
  <path transform="rotate(47.5628, 308.892, 242.505)" fill="url(#svg_18)" fill-rule="evenodd" stroke-width="1.0000000pt" id="path14023" d="m181.434921,357.38855l5.85257,10.908661l14.956604,10.908691l15.606888,2.727081l18.208038,-3.408844l26.011475,-7.499725l31.864014,-17.044861l37.066315,-26.589874l35.765686,-36.816803l30.563385,-40.22583l23.410309,-41.589264l14.956635,-38.862183l0.650269,-33.407867l-14.956482,-23.862755l-19.508728,-8.863258l-11.054718,-0.681801l-25.361176,19.77198l-31.864105,35.453247l-46.820557,50.452637l-25.361206,28.635284l-43.569153,48.407227l-18.858322,24.544525l-11.70517,21.817383l-5.85257,10.908691l0,14.317657z"/>
  <path transform="rotate(47.5628, 313.08, 206.326)" fill="#d4c800" fill-rule="evenodd" stroke-width="1.0000000pt" id="path14662" d="m192.481125,325.752136c5.639664,7.616943 16.322128,13.015198 25.292908,7.968994c5.719849,-9.189545 -7.353394,-17.070221 -8.532288,-26.030273c-2.739166,-11.814392 11.822906,-19.919189 21.675262,-22.714905c9.284851,-2.000549 18.823212,0.91983 28.238632,0.211914c9.397919,-0.614655 17.740295,-8.85434 22.486816,-16.780121c3.806854,-7.428619 8.648376,-15.447418 8.283325,-23.979034c0.550476,-9.754486 -11.651398,-12.590912 -11.36264,-22.135376c-0.945618,-8.129242 11.943024,-8.157135 16.932343,-12.995697c7.988403,-2.765259 16.804321,-3.695038 25.28479,-4.172241c9.242249,0.240143 19.863373,3.001953 28.265015,-1.207306c6.394165,-7.800018 12.015045,-21.064331 5.947571,-30.54834c-3.666443,-7.59079 -6.564148,-22.898651 1.856995,-27.360504c9.174194,-3.661377 20.153381,3.259735 28.628387,-3.4599c8.618317,-4.571136 18.233063,-14.682983 15.235748,-25.199837c-1.939941,-7.916946 -14.225464,-17.714798 -0.066467,-19.683235c8.21582,-0.087845 16.773529,2.55838 24.825348,1.232826c9.937988,-0.515869 12.349518,-14.741554 4.036102,-19.598572c-10.084686,-8.884827 -7.251556,10.891579 -16.986877,8.159531c-7.863831,2.528938 -16.75,1.71627 -24.176208,5.258751c-13.760223,5.296585 -7.187073,18.527512 -2.824646,27.701401c-4.995636,8.967484 -18.107178,7.379059 -26.366394,12.685287c-9.610413,3.201843 -22.292114,8.831268 -21.483582,20.952423c-1.714294,11.247498 3.317383,23.052399 0.552368,33.88623c-3.503357,7.887085 -13.833221,4.352142 -20.774139,6.824219c-10.260742,1.531433 -20.415497,3.902466 -29.453033,9.154297c-9.497955,4.546692 -16.190338,13.26651 -22.860962,21.132446c-7.351074,9.94632 9.966888,20.110291 4.89502,28.975677c-10.104156,9.093781 -24.817459,8.145844 -36.766998,13.622467c-12.89769,4.113892 -23.513947,12.80426 -33.491241,21.63446c-4.445145,10.610474 -9.984924,21.813599 -7.527893,33.622711c0.039459,0.473572 0.197281,2.368073 0.23674,2.841705l0,0z"/>
  <path transform="rotate(47.5628, 181.001, 206.684)" fill="#000000" fill-opacity="0.521875" fill-rule="evenodd" stroke-width="1.0000000pt" id="path14666" d="m175.475586,225.101822l-6.628647,-7.366943l-3.682587,-4.420135l2.209549,-11.787079l8.838196,-9.576996l10.311218,-3.683441l10.311264,0l-13.257309,5.893494l-6.628662,4.420166l-4.419098,4.420166l-3.682571,6.630219l1.473022,7.366943l5.155624,8.103607z"/>
  <path transform="rotate(47.5628, 274.17, 221.79)" fill="#000000" fill-opacity="0.490625" fill-rule="evenodd" stroke-width="1.0000000pt" id="path14667" d="m233.661728,261.939972l8.838211,-0.736694l12.520782,-5.15686l9.574707,-13.997116l4.419128,-16.207245l-0.736511,-10.31369l-7.365173,-8.103622l-2.946075,-8.103607l5.89212,-5.893539l6.628662,-2.946762l12.520782,-5.156845l14.730316,0l8.838196,-0.736694l8.101715,-1.473389l-13.993805,-1.473373l-20.622498,1.473373l-13.993835,5.156845l-8.838165,5.156845l-2.946091,5.893539l5.892166,8.103607l4.419067,9.577011l0.736542,7.366913l-4.419098,13.260468l-6.628677,12.523743l-10.311218,9.577011l-10.311249,2.210083z"/>
  <path transform="rotate(47.5628, 386.432, 223.935)" fill="#000000" fill-opacity="0.490625" fill-rule="evenodd" stroke-width="1.0000000pt" id="path14668" d="m365.809509,256.350189l2.946106,-8.840302l0,-7.366913l-2.209564,-8.103622l-3.682587,-10.31369l0,-8.840302l4.419098,-5.893539l7.365143,-2.210068l10.311249,0l5.155609,0.736679l8.101685,-3.683441l11.784271,-10.31369l-6.628632,8.840302l-9.574707,6.630219l-8.838226,2.210083l-11.784271,-1.473389l-3.682556,1.473389l-2.946075,6.630219l0.736511,8.103607l2.946075,12.523788l0,11.050369l-4.419128,8.840302z"/>
  <path transform="rotate(47.5628, 460.323, 209.767)" fill="#000000" fill-opacity="0.490625" fill-rule="evenodd" stroke-width="1.0000000pt" id="path14669" d="m443.750916,220.082031l-2.209564,-5.15686l5.15564,-3.683472l7.365173,-0.736679l8.838165,2.210068l12.520813,0l5.155609,-7.366913l0,-5.893524l-3.682587,8.103607l-2.209564,0.736694l-11.04776,1.473389l-12.520782,-2.210083l-5.89212,0.736694l-5.155609,0.736694l0.736511,5.893524l2.946075,5.15686z"/>
  <path transform="rotate(47.5628, 312.109, 207.043)" fill="url(#linearGradient15293)" fill-rule="evenodd" stroke-width="1.0000000pt" id="path15292" d="m191.512054,326.469147c5.640015,7.616974 16.322006,13.014984 25.293015,7.968994c5.719986,-9.190002 -7.353012,-17.071014 -8.532013,-26.031006c-2.738998,-11.813995 11.823013,-19.919006 21.675003,-22.714996c9.285004,-2 18.822998,0.919983 28.239014,0.212006c9.39801,-0.614014 17.73999,-8.854004 22.485992,-16.779999c3.807007,-7.428009 8.649017,-15.447006 8.284027,-23.979019c0.549988,-9.753998 -11.652008,-12.590988 -11.363007,-22.134995c-0.945007,-8.128998 11.942993,-8.156998 16.931976,-12.996002c7.989014,-2.764999 16.805023,-3.694992 25.285004,-4.171997c9.243011,0.240005 19.864014,3.001999 28.265015,-1.207001c6.393982,-7.800003 12.014984,-21.065002 5.947998,-30.548996c-3.666992,-7.591003 -6.563995,-22.89801 1.856995,-27.360001c9.174011,-3.662003 20.153015,3.259995 28.627991,-3.460007c8.619019,-4.570999 18.233002,-14.682999 15.236023,-25.199989c-1.940002,-7.917 -14.225006,-17.714996 -0.06601,-19.683197c8.214996,-0.087799 16.77301,2.558197 24.825012,1.232796c9.937988,-0.5158 12.348999,-14.741501 4.03598,-19.598495c-10.084991,-8.884903 -7.251984,10.891602 -16.987,8.1595c-7.863983,2.5289 -16.75,1.716301 -24.175995,5.258698c-13.76001,5.2966 -7.187012,18.527702 -2.825012,27.701698c-4.994995,8.966988 -18.106995,7.37899 -26.365997,12.68499c-9.610992,3.202011 -22.291992,8.831009 -21.483978,20.952011c-1.71402,11.248001 3.317993,23.052994 0.552979,33.886993c-3.503998,7.886993 -13.833984,4.352005 -20.773987,6.824005c-10.261017,1.530991 -20.416016,3.901993 -29.45401,9.153992c-9.497986,4.546997 -16.190002,13.266998 -22.860992,21.133011c-7.351013,9.945999 9.96701,20.109985 4.895996,28.974991c-10.10498,9.093994 -24.818008,8.145996 -36.767014,13.623016c-12.897995,4.113983 -23.513992,12.803986 -33.492004,21.633972c-4.444992,10.611023 -9.984985,21.814026 -7.528,33.623016c0.040009,0.473999 0.198013,2.368011 0.237,2.84201l0,0z"/>
  <path transform="rotate(47.5628, 153.61, 201.293)" fill="#ffffff" fill-opacity="0.446875" fill-rule="evenodd" stroke-width="1.0000000pt" id="path15297" d="m149.187698,192.083054l-2.209564,8.840302l2.946075,8.103607l7.365173,1.473389l2.946075,-3.683472l-5.892151,-5.893524l-5.155609,-8.840302z"/>
  <path transform="rotate(47.5628, 260.676, 197.206)" fill="#ffffff" fill-opacity="0.43125" fill-rule="evenodd" stroke-width="1.0000000pt" id="path15300" d="m259.202515,178.42128l-4.419113,5.156845l1.473038,9.576996l4.419128,10.31369l0,8.840286l-2.946075,3.683472l6.628632,-8.103607l2.209564,-11.787079l-2.946075,-8.103607l-3.682587,-5.156845l-0.736511,-4.420151z"/>
  <path transform="rotate(47.5628, 353.792, 201.884)" fill="#ffffff" fill-opacity="0.43125" fill-rule="evenodd" stroke-width="1.0000000pt" id="path15301" d="m354.528931,181.625092l-0.736511,18.908432l0.736511,15.306824l-4.419098,5.402405l-5.155609,0l8.101685,0.900406l7.365173,-3.601608l2.209534,-11.705215l-0.736511,-8.103607l-2.946045,-11.705231l-4.419128,-5.402405z"/>
  <path transform="rotate(47.5628, 429.459, 194.571)" fill="#ffffff" fill-opacity="0.43125" fill-rule="evenodd" stroke-width="1.0000000pt" id="path15302" d="m427.988464,185.731644l0.736511,8.840302l1.473053,5.893524l-1.473053,6.630219l-5.155609,2.210083l-2.946075,0.736694l8.838226,0.736694l6.628632,-2.946777l2.209564,-8.840286l-3.682617,-8.103622l-2.209534,-5.15683l-1.473022,-7.366928l-2.946075,7.366928z"/>
  <path transform="rotate(47.5628, 309.584, 181.171)" fill="#009c00" fill-rule="evenodd" stroke-width="1.0000000pt" id="path15304" d="m234.93483,234.093979l-5.770004,15.225006l5.048004,8.699997l-11.539001,5.074982l1.442001,9.425018l7.21199,0l9.377014,-6.524994l12.981995,-7.25l17.30899,-23.200012l12.983002,-15.224991l13.703003,-15.950012l23.080017,-21.75l35.339996,-38.424988l2.884979,-7.975006l6.490997,-5.800003l7.213013,-4.349998l21.636993,-21.025009l2.164001,-5.798996l-1.442993,-9.425102l-11.540009,2.900002l-7.212006,10.875099l-19.472992,0.724998l-8.654999,10.874001l2.88501,7.249992l-18.031006,1.450012l-12.981995,2.899994l-7.213013,10.875008l1.442993,7.975006l-10.819,4.349991l-11.539978,2.900009l-10.817993,17.399994l0.720978,12.324997l-8.654999,10.150009l-7.933014,-0.725006l-15.867981,-2.175003l-5.048004,10.875l-1.442993,10.875l3.606003,10.150009l-7.932999,5.074997l-7.934006,-0.725006l0.720993,6.525009l3.60701,1.449997z"/>
  <path transform="rotate(47.5628, 197.55, 180.574)" fill="#ffffff" fill-opacity="0.45" fill-rule="evenodd" stroke-width="1.0000000pt" id="path15926" d="m193.499008,176.519165l0,8.103607l8.101669,-3.683472l-8.101669,-4.420135z"/>
  <path transform="rotate(47.5628, 214.188, 176.767)" fill="#ffffff" fill-opacity="0.53125" fill-rule="evenodd" stroke-width="1.0000000pt" id="path15927" d="m210.507141,173.083405l10.311234,9.576996l0.736526,8.103638l0.736511,-13.997162l-5.155609,-13.997162l-8.838211,1.473404l-2.209549,1.473373l4.419098,7.366913z"/>
  <path transform="rotate(47.5628, 254.342, 165.002)" fill="#000000" fill-opacity="0.278125" fill-rule="evenodd" stroke-width="1.0000000pt" id="path15928" d="m249.923523,172.369598l11.047729,2.946777l2.946075,-8.103607l-5.89212,-9.576996l-9.574707,-2.946777l-3.682587,8.840302l5.155609,8.840302z"/>
  <path transform="rotate(47.5628, 247.157, 174.067)" fill="#ffffff" fill-opacity="0.446875" fill-rule="evenodd" stroke-width="1.0000000pt" id="path15929" d="m257.100281,170.752686l-10.311249,8.840302l-8.838211,-5.893524l-0.736496,-5.15686l19.885956,2.210083z"/>
  <path transform="rotate(47.5628, 279.746, 185.689)" fill="#ffffff" fill-opacity="0.575" fill-rule="evenodd" stroke-width="1.0000000pt" id="path15930" d="m274.588104,195.636002l-4.419128,-8.840302l16.93988,-11.050415l2.209564,7.366943l-14.730316,12.523773z"/>
  <path transform="rotate(47.5628, 304.837, 166.734)" fill="#000000" fill-opacity="0.5375" fill-rule="evenodd" stroke-width="1.0000000pt" id="path15931" d="m302.628387,160.10434l-8.838196,10.31369l11.784271,4.420151l10.311249,-16.20723l-13.257324,1.473389z"/>
  <path transform="rotate(47.5628, 339.853, 188.113)" fill="#000000" fill-opacity="0.553125" fill-rule="evenodd" stroke-width="1.0000000pt" id="path15932" d="m332.85675,187.006653l2.209564,13.260452l11.784271,-11.787079l-7.365173,-12.523758l-6.628662,11.050385z"/>
  <path transform="rotate(47.5628, 375.416, 171.693)" fill="#000000" fill-opacity="0.4625" fill-rule="evenodd" stroke-width="1.0000000pt" id="path15933" d="m369.154633,169.483551l-0.736511,8.103622l13.993805,-3.683456l-5.15564,-8.103622l-8.101654,3.683456z"/>
  <path transform="rotate(47.5628, 392.21, 170.755)" fill="#ffffff" fill-opacity="0.609375" fill-rule="evenodd" stroke-width="1.0000000pt" id="path15934" d="m384.841248,167.439743l9.574738,8.103607l5.155609,-3.683472l0,-5.893524l-14.730347,1.473389z"/>
  <path transform="rotate(47.5628, 422.829, 179.68)" fill="#000000" fill-opacity="0.290625" fill-rule="evenodd" stroke-width="1.0000000pt" id="path15935" d="m418.409576,178.205734l2.946075,6.630249l5.89212,-1.473389l0,-8.840302l-8.838196,3.683441z"/>
  <path transform="rotate(47.5628, 227.285, 181.261)" fill="#000000" fill-opacity="0.278125" fill-rule="evenodd" stroke-width="1.0000000pt" id="path15936" d="m218.076828,172.423141l10.311218,17.680634l8.1017,-5.893555l-5.155624,-7.366913l-2.946075,4.420151l-10.311218,-8.840317z"/>
  <path transform="rotate(47.5628, 187.434, 186.259)" fill="#000000" fill-opacity="0.33125" fill-rule="evenodd" stroke-width="1.0000000pt" id="path16558" d="m190.379715,180.73587l-2.209549,5.15686l-2.94606,5.893555l-0.736526,-10.313721l5.892136,-0.736694z"/>
  <path transform="rotate(47.5628, 254.968, 185.887)" fill="#000000" fill-opacity="0.33125" fill-rule="evenodd" stroke-width="1.0000000pt" id="path17180" d="m247.234711,181.097778l9.574738,11.787079l5.89212,-13.997147l-7.365173,5.893539l-8.101685,-3.683472z"/>
  <path transform="rotate(47.5628, 317.084, 178.493)" fill="#ffffff" fill-opacity="0.5625" fill-rule="evenodd" stroke-width="1.0000000pt" id="path17181" d="m306.035767,181.070587l13.257324,5.893539l5.155579,5.893539l-2.209534,-10.31369l5.892151,-18.417313l-10.311279,16.20723l-11.784241,0.736694z"/>
  <path transform="rotate(47.5628, 281.884, 190.215)" fill="#000000" fill-opacity="0.33125" fill-rule="evenodd" stroke-width="1.0000000pt" id="path17182" d="m282.990906,179.532639l0.736511,6.630234l-11.04776,10.31369l0.736511,4.420135l17.676422,-16.207214l-4.419098,-3.683456l-3.682587,-1.473389z"/>
  <path transform="rotate(47.5628, 339.351, 176.097)" fill="#000000" fill-opacity="0.33125" fill-rule="evenodd" stroke-width="1.0000000pt" id="path17183" d="m329.776306,187.147797l19.149414,-1.473389l-14.730316,-20.62738l4.419098,9.576996l-8.838196,12.523773z"/>
  <path transform="rotate(47.5628, 362.121, 167.326)" fill="#ffffff" fill-opacity="0.59375" fill-rule="evenodd" stroke-width="1.0000000pt" id="path17184" d="m368.748108,161.062042l-13.257294,0.736694l0,11.787079l5.892151,-1.473389l1.473022,-7.366913l5.89212,-3.683472z"/>
  <path transform="rotate(47.5628, 395.499, 178.721)" fill="#000000" fill-opacity="0.484375" fill-rule="evenodd" stroke-width="1.0000000pt" id="path17186" d="m385.924255,174.668121l6.628632,12.523773l12.520813,-11.050385l-8.101685,-5.893524l-2.946106,7.366913l-8.101654,-2.946777z"/>
  <text font-weight="bold" transform="rotate(-0.881426, 309.325, 256.428) matrix(3.08244, -1.68541e-08, 1.31579e-08, 2.52424, -519.587, -404.871)" xml:space="preserve" text-anchor="middle" font-family="Sans-serif" font-size="24" id="svg_1" y="270.515" x="269.483" stroke-width="0" fill="#000000">SARAH</text>
  <title>Layer 1</title>
 </g>
</svg>